<svg xmlns="http://www.w3.org/2000/svg" viewBox="0 0 400 400"><defs><style>.cls-1{fill:#ffe610;}.cls-2{fill:#fea621;}.cls-3{fill:#7b1111;}</style></defs><g id="Layer_2" data-name="Layer 2"><path class="cls-1" d="M352.84,236.79a9.81,9.81,0,0,0-8.37-2.92l-3.7.47-11.84-76.53a18.83,18.83,0,0,0-11-28.76c-.29-.08-.59-.15-.89-.21l-2.63-.38H233.2A33.48,33.48,0,0,0,209.54,98.4V86.34h70.92V5.7H119.55V86.34h70.91V98.4a33.49,33.49,0,0,0-23.65,30.06H85.38l-2.41.38c-.29.06-.59.13-.88.21a18.83,18.83,0,0,0-11,28.76L59.23,234.34l-3.7-.47a9.92,9.92,0,0,0-11.06,11.38l8.22,52.12a5,5,0,0,0,9.88-1.56l-8.2-52,27.84,3.56-17.87,49.3a5,5,0,0,0,3,6.4,4.89,4.89,0,0,0,1.71.3,5,5,0,0,0,4.7-3.29l17.91-49.39a9.92,9.92,0,0,0-8.07-13.22l-2.71-.35L87,175.72h0l.71-1.81.31,2.83h0l14.22,134.53h56.93v50.26A32.8,32.8,0,0,0,192,394.3H208a32.81,32.81,0,0,0,32.78-32.77V311.27h56.93L312,176.74h0l.3-2.83.72,1.81h0l6.14,61.39-2.71.35a9.92,9.92,0,0,0-8.07,13.22l17.91,49.39a5,5,0,0,0,4.7,3.29,4.89,4.89,0,0,0,1.71-.3,5,5,0,0,0,3-6.4l-17.87-49.3,27.84-3.56-8.2,52a5,5,0,0,0,9.88,1.56l8.22-52.12A9.83,9.83,0,0,0,352.84,236.79Z"/><polygon class="cls-2" points="127.7 78.19 127.7 13.85 200 13.85 200 13.85 272.3 13.85 272.3 78.19 200 78.19 200 78.19 127.7 78.19"/><path class="cls-2" d="M200,105.13a25.25,25.25,0,0,1,25,23.33H175A25.25,25.25,0,0,1,200,105.13Z"/><path class="cls-2" d="M95,154.08A10.68,10.68,0,0,1,86.71,158a10.22,10.22,0,0,1-1.58-.12A10.7,10.7,0,0,1,76,147.31a10.59,10.59,0,0,1,.74-3.92A10.8,10.8,0,0,1,83,137.3c.28-.11.58-.2.89-.29h0a10.34,10.34,0,0,1,2.86-.39A10.66,10.66,0,0,1,93.38,139a8.81,8.81,0,0,1,1,.93,10.59,10.59,0,0,1,3,7.43,10.43,10.43,0,0,1-.75,3.91Z"/><path class="cls-2" d="M230.63,321.51H212.32V331.7h18.31v10.23H212.32v10.19h18.31v9.41c0,.27,0,.55,0,.82H212.32v10.2h15.42A22.55,22.55,0,0,1,208,384.11H192a22.55,22.55,0,0,1-19.7-11.56h15.42v-10.2H169.39c0-.27,0-.55,0-.82v-9.41h18.31V341.93H169.37V331.7h18.31V321.51H169.37V311.27h61.26Z"/><path class="cls-2" d="M303,164.73,288.58,301.08H111.42L97,164.73l-.16-1.54a18.85,18.85,0,0,0,8.71-15.88,18.62,18.62,0,0,0-2.11-8.65H296.56a18.62,18.62,0,0,0-2.11,8.65,18.85,18.85,0,0,0,8.71,15.88Z"/><path class="cls-2" d="M314.87,157.88a10.22,10.22,0,0,1-1.58.12,10.64,10.64,0,0,1-8.26-3.92l-1.68-2.86a10.43,10.43,0,0,1-.75-3.91,10.59,10.59,0,0,1,3-7.43,8.81,8.81,0,0,1,1-.93,10.66,10.66,0,0,1,6.67-2.33,10.34,10.34,0,0,1,2.86.39h0c.31.09.61.18.89.29a10.8,10.8,0,0,1,6.18,6.09,10.59,10.59,0,0,1,.74,3.92A10.7,10.7,0,0,1,314.87,157.88Z"/><rect class="cls-3" x="149.58" y="215.21" width="100.84" height="10.21" rx="5.11"/><path class="cls-3" d="M179.68,36.92a3.36,3.36,0,0,0-4.76,0l-4.34,4.34-4.05-4A3.37,3.37,0,0,0,161.77,42l4,4.05-4,4a3.37,3.37,0,1,0,4.76,4.76l4.05-4,4.34,4.34a3.37,3.37,0,1,0,4.76-4.76L175.34,46l4.34-4.34A3.36,3.36,0,0,0,179.68,36.92Z"/><path class="cls-3" d="M234.18,46l4-4.05a3.36,3.36,0,0,0,0-4.76h0a3.36,3.36,0,0,0-4.76,0l-4.05,4-4.34-4.34a3.36,3.36,0,0,0-4.76,0h0a3.36,3.36,0,0,0,0,4.76L224.66,46l-4.34,4.34a3.36,3.36,0,0,0,0,4.76h0a3.36,3.36,0,0,0,4.76,0l4.34-4.34,4.05,4a3.36,3.36,0,0,0,4.76,0h0a3.36,3.36,0,0,0,0-4.76Z"/></g></svg>